<?xml version="1.0" encoding="UTF-8"?>
<svg id="Layer_2" data-name="Layer 2" xmlns="http://www.w3.org/2000/svg" viewBox="0 0 105.41 113.75">
  <g id="Layer_2-2" data-name="Layer 2">
    <path d="m100.35,62.5c-2.69-4.67-6.06-8.87-10.05-12.54,8.23-8.19,12.94-19.22,12.97-30.43.02-6-1.48-10.72-4.43-14.04-3.43-3.86-9.2-5.93-15.05-5.4-4.85.44-9.83,2.55-14.39,6.12-8.87,6.92-14.27,17.96-14.3,29.09-.8-.04-1.59-.06-2.38-.06-.78,0-1.57.02-2.37.06-.03-11.12-5.43-22.16-14.3-29.08C31.46,2.63,26.48.52,21.63.08,15.79-.44,10.01,1.62,6.58,5.48c-2.96,3.32-4.45,8.04-4.43,14.04.03,11.21,4.74,22.24,12.97,30.43-4,3.67-7.37,7.87-10.05,12.54C1.44,68.78-.25,74.85.03,80.53c.08,1.61.32,3.23.73,4.81,2.33,9.16,10.27,17.74,20.74,22.39,9.31,4.14,20.13,6.23,31.17,6,.51,0,1.01.01,1.52.01,10.59,0,20.84-2.07,29.73-6.02,10.46-4.65,18.41-13.23,20.74-22.39.4-1.59.65-3.21.73-4.81.28-5.68-1.41-11.75-5.03-18.04Z"/>
  </g>
</svg>