<?xml version="1.0" encoding="UTF-8"?>
<svg id="Layer_2" data-name="Layer 2" xmlns="http://www.w3.org/2000/svg" viewBox="0 0 349.19 148.46">
  <defs>
    <style>
      .cls-1 {
        fill: #14181f;
        stroke-width: 0px;
      }
    </style>
  </defs>
  <g id="Layer_2-2" data-name="Layer 2">
    <path class="cls-1" d="m77.43,50.63c.31,4.24-1.38,6.28-4.92,6.9-4,.79-9.69.47-14.77.16-.46,5.49.31,21.97.31,21.97,0,0,15.38-1.73,17.38,3.61,1.69,4.24-.61,10.04-5.07,10.83-2.46.63-13.08.94-13.08.94,0,0,.15,21.5.31,29.81,0,3.76,0,7.69-1.54,10.98-1.54,3.45-4.92,6.43-8.61,5.96-3.08-.47-5.54-3.14-6.61-6.12-1.08-2.98-1.08-6.28-1.08-9.41.15-4.55.31-9.1.31-13.81.46-19.3.92-38.6,1.38-58.06,0-2.04,0-4.08.92-5.96,2-4.08,6.92-5.33,11.38-5.81,3.23-.31,6.46-.47,9.69-.47,2.92,0,6.15.16,8.77,1.41,2.77,1.41,5.08,3.92,5.23,7.06Z"/>
    <path class="cls-1" d="m236.68,41.26c3.33,1.22,5.42,4.72,5.25,8.22,0,1.05-.18,2.1-.7,3.15-.7,1.4-1.75,2.63-2.97,3.5-3.15,2.1-7.87,1.57-10.67-1.05-2.62-2.8-3.15-7.52-1.05-10.67,2.1-3.32,6.65-4.55,10.15-3.15Z"/>
    <path class="cls-1" d="m155.38,53.1c-2.67.76-5.72-1.34-6.01-4.01-.28-2.38,1.15-4.48,2.48-6.39,1.62-2.38,3.34-4.67,4.96-7.06,1.14-1.53,2.29-3.15,3.91-4.1s3.91-1.14,5.34.1c1.15,1.05,1.43,2.77,1.15,4.29-.29,1.53-1.15,2.96-1.91,4.29-1.62,2.67-3.24,5.34-4.86,8.01-1.24,2-2.77,4.29-5.06,4.86Z"/>
    <path class="cls-1" d="m118.58,128.86c-2.2,2.59-5.97,2.59-9.34,2.46-4.8-.26-9.73-.39-14.53-.65-2.59-.13-5.45-.26-7.66-1.69-3.89-2.72-4.15-8.17-4.15-12.85.39-20.89.65-41.65,1.04-62.54,0-4.41,1.04-10.12,5.45-11.16,2.85-.52,5.84,1.56,7.13,4.28,1.17,2.72,1.17,5.84,1.17,8.69,0,17.51-.91,60.59-.91,60.59,0,0,14.92-.26,18.69,1.95,3.89,2.08,5.97,7.66,3.11,10.9Z"/>
    <path class="cls-1" d="m150.88,55.68c-4.8-4.02-11.54-4.67-17.77-4.54-3.11.13-6.36.26-8.95,1.95-2.59,1.69-4.15,5.19-2.72,7.91,1.43,2.85,5.06,3.5,8.17,3.37,3.11-.26,6.49-.91,9.34.52,3.89,1.82,5.32,6.88,5.32,11.29,0,.52-.13,3.11-.13,3.11,0,0-1.17-.78-1.69-1.04-6.36-3.37-14.4-3.63-20.89-.52-6.62,3.11-11.55,9.34-13.1,16.48-1.17,5.84.13,12.46,4.41,16.61,3.63,3.5,8.95,4.93,13.88,4.41,3.76-.26,7.26-1.56,10.64-3.37,1.17-.65,4.54-2.2,5.06-2.85-.52,3.37-.78,9.34,1.95,11.16,2.59,1.95,6.62,1.56,8.95-.78,2.08-2.08,2.6-5.32,2.98-8.43,1.04-10.12,1.82-20.24,1.95-30.49.26-8.95-.39-19.07-7.4-24.78Zm-10.9,38.66c-.13.26-.39.39-.65.52-3.5,2.08-7.27,3.76-11.16,5.06-1.17.39-2.46.78-3.76.52-1.3-.39-2.33-1.56-2.08-2.85.65-3.5,3.5-6.62,7-7.66,3.5-.91,7.65.13,10.12,2.85.39.39.78.91.52,1.56Z"/>
    <path class="cls-1" d="m214.34,37c-6.62-5.06-16.87-2.85-22.45,3.11-5.71,6.1-7.66,14.79-7.66,23.09,0,11.29,2.98,22.45,8.57,32.05.78,1.3,2.72,4.15,2.72,4.15,0,0-4.67,10.25-8.05,14.53-3.63-15.18-7.13-30.36-10.77-45.41-1.04-4.54-3.64-10.12-8.17-9.47-2.6.26-4.41,2.6-4.93,5.06-.65,2.33-.26,4.93.26,7.39,3.37,19.85,7.91,39.44,13.49,58.77,1.04,3.5,2.72,7.53,6.23,8.3,3.76.78,7.01-2.59,9.34-5.71,15.31-21.28,24.91-46.58,27.51-72.65.91-8.3.52-18.03-6.1-23.23Zm-7.53,16.74c-.52,16.09-5.58,28.54-5.58,28.54,0,0-2.34-8.95-2.86-17-.39-4.93.78-9.86,3.24-14.01.65-1.17,1.69-2.33,2.98-2.2,1.95.13,2.34,2.72,2.21,4.67Z"/>
    <path class="cls-1" d="m228.75,128.73c-2.98-2.59-2.98-7.27-2.85-11.16.52-15.44,1.17-30.75,1.69-46.06.13-2.46.52-4.93,2.08-6.75,1.43-1.82,4.02-2.98,6.23-2.2,2.72,1.04,3.89,4.15,4.41,7.01,1.3,6.49,1.04,13.23.91,19.85-.39,11.29-.78,22.57-1.17,33.73.26,2.72-1.3,5.45-3.76,6.61-2.34,1.17-5.45.78-7.53-1.04Z"/>
    <path class="cls-1" d="m289.34,55.68c-4.8-4.02-11.55-4.67-17.78-4.54-3.11.13-6.36.26-8.95,1.95-2.59,1.69-4.15,5.19-2.72,7.91,1.43,2.85,5.06,3.5,8.17,3.37,3.11-.26,6.49-.91,9.34.52,3.89,1.82,5.32,6.88,5.32,11.29,0,.52-.13,3.11-.13,3.11,0,0-1.17-.78-1.69-1.04-6.36-3.37-14.4-3.63-20.89-.52-6.61,3.11-11.54,9.34-13.1,16.48-1.17,5.84.13,12.46,4.41,16.61,3.63,3.5,8.95,4.93,13.88,4.41,3.76-.26,7.27-1.56,10.64-3.37,1.17-.65,4.54-2.2,5.06-2.85-.52,3.37-.78,9.34,1.95,11.16,2.59,1.95,6.61,1.56,8.95-.78,2.08-2.08,2.59-5.32,2.98-8.43,1.04-10.12,1.82-20.24,1.95-30.49.26-8.95-.39-19.07-7.39-24.78Zm-10.9,38.66c-.13.26-.39.39-.65.52-3.5,2.08-7.26,3.76-11.16,5.06-1.17.39-2.46.78-3.76.52-1.3-.39-2.33-1.56-2.08-2.85.65-3.5,3.5-6.62,7.01-7.66,3.5-.91,7.65.13,10.12,2.85.39.39.78.91.52,1.56Z"/>
    <g>
      <path class="cls-1" d="m346.77,93.48c-3.63-.62-6.58-2.32-9.02-5.19-2.02-2.42-3.28-5.11-3.83-8.22-.24-1.38-1.44-2.38-2.86-2.38h0c-1.42,0-2.62,1-2.87,2.38-.55,3.12-1.79,5.82-3.81,8.22-2.44,2.89-5.4,4.59-9.03,5.21-1.4.24-2.41,1.43-2.41,2.82s1.01,2.58,2.41,2.82c3.63.62,6.58,2.32,9.02,5.19,2.03,2.42,3.28,5.11,3.83,8.24.25,1.38,1.45,2.37,2.86,2.37h0c1.42,0,2.62-1.01,2.86-2.38.55-3.12,1.79-5.82,3.81-8.22,2.44-2.89,5.4-4.59,9.03-5.21,1.4-.24,2.41-1.43,2.41-2.82,0-1.4-1.02-2.58-2.42-2.81Z"/>
      <path class="cls-1" d="m325.48,132.71c-2.15-.37-3.9-1.38-5.35-3.08-1.22-1.45-1.97-3.07-2.3-4.94-.23-1.33-1.39-2.29-2.75-2.29s-2.51.96-2.74,2.29c-.33,1.88-1.08,3.5-2.28,4.94-1.45,1.72-3.21,2.73-5.35,3.1-1.34.23-2.32,1.37-2.32,2.72s.97,2.49,2.31,2.71c2.15.37,3.9,1.38,5.35,3.08,1.22,1.45,1.97,3.07,2.3,4.94.23,1.33,1.39,2.29,2.74,2.29s2.52-.96,2.75-2.29c.33-1.88,1.08-3.5,2.29-4.94,1.45-1.71,3.2-2.73,5.36-3.1,1.34-.23,2.3-1.38,2.3-2.72,0-1.34-.98-2.48-2.31-2.7Z"/>
    </g>
    <g>
      <path class="cls-1" d="m51.55,15.02c-3.41-.58-6.19-2.19-8.48-4.89-1.9-2.28-3.08-4.82-3.6-7.76-.24-1.37-1.44-2.36-2.85-2.36s-2.6.99-2.85,2.37c-.52,2.94-1.69,5.47-3.6,7.74-2.3,2.71-5.07,4.31-8.49,4.89-1.39.24-2.4,1.42-2.4,2.8s1.01,2.56,2.4,2.8c3.41.58,6.19,2.19,8.48,4.89,1.9,2.28,3.08,4.82,3.59,7.75.24,1.38,1.44,2.37,2.85,2.37s2.61-1,2.85-2.37c.52-2.94,1.7-5.48,3.59-7.74,2.3-2.71,5.08-4.31,8.5-4.9,1.39-.24,2.39-1.42,2.39-2.8s-1.01-2.56-2.39-2.8Z"/>
      <path class="cls-1" d="m22.07,48.9c-2.01-.34-3.65-1.29-4.99-2.88-1.14-1.36-1.84-2.88-2.15-4.64-.23-1.32-1.38-2.28-2.73-2.28h0c-1.35,0-2.49.95-2.73,2.28-.31,1.75-1.01,3.27-2.15,4.63-1.36,1.6-3,2.54-5,2.88-1.33.23-2.3,1.37-2.3,2.7s.97,2.48,2.3,2.7c2.01.34,3.65,1.29,4.99,2.88,1.14,1.36,1.84,2.88,2.15,4.64.23,1.32,1.38,2.28,2.73,2.28s2.5-.96,2.73-2.28c.31-1.76,1.02-3.28,2.14-4.62,1.36-1.6,3-2.55,4.99-2.89,1.34-.22,2.32-1.35,2.32-2.7,0-1.35-.97-2.49-2.3-2.71Z"/>
    </g>
  </g>
</svg>