<?xml version="1.0" encoding="UTF-8"?>
<svg id="Layer_2" data-name="Layer 2" xmlns="http://www.w3.org/2000/svg" viewBox="0 0 392.72 485.25">
  <defs>
    <style>
      .cls-1, .cls-2 {
        fill: #fff;
      }

      .cls-3 {
        fill: #14181f;
      }

      .cls-2 {
        stroke: #14181f;
        stroke-linecap: round;
        stroke-linejoin: round;
        stroke-width: 8.39px;
      }

      .cls-4, .cls-5 {
        fill: #a786df;
      }

      .cls-5 {
        opacity: .69;
      }
    </style>
  </defs>
  <g id="Layer_1_copy" data-name="Layer 1 copy">
    <g>
      <path class="cls-4" d="M352.8,186.55c21.23-28.56,32.89-62.89,32.97-97.52,.06-25.94-6.96-47.02-20.86-62.64C349.99,9.62,327.34,0,302.78,0c-2.71,0-5.45,.12-8.14,.36-20.65,1.86-41.44,10.55-60.14,25.15-15.51,12.11-28.56,27.52-38.14,44.96-9.58-17.44-22.63-32.85-38.14-44.96C139.52,10.92,118.73,2.22,98.08,.36c-2.68-.24-5.42-.36-8.14-.36-24.56,0-47.21,9.62-62.13,26.39C13.9,42.02,6.89,63.09,6.95,89.03c.08,34.63,11.74,68.96,32.97,97.52-7.54,8.92-14.28,18.54-20.11,28.66C5.6,239.92-1.03,264.31,.13,287.72c.34,6.91,1.39,13.85,3.11,20.64,6.36,25.03,22.1,48.59,44.62,66.98-2.51,8.07-3.78,16.44-3.78,24.97,0,46.83,38.55,84.93,85.93,84.93,15.22,0,30.18-4,43.28-11.58,8.72-5.05,16.48-11.58,22.9-19.24,6.42,7.66,14.18,14.2,22.91,19.24,13.1,7.57,28.06,11.58,43.28,11.58,47.38,0,85.93-38.1,85.93-84.93,0-8.46-1.25-16.75-3.72-24.75,22.66-18.42,38.5-42.06,44.88-67.2,1.72-6.79,2.77-13.73,3.11-20.64,1.16-23.41-5.47-47.8-19.68-72.5-5.83-10.12-12.57-19.74-20.11-28.66Z"/>
      <g>
        <path class="cls-1" d="M262.38,457.63c-32.15,0-58.31-25.71-58.31-57.32,0-2.76,.2-5.51,.6-8.24-1.31,.02-2.6,.03-3.87,.03-1.48,0-2.96-.01-4.44-.04-1.46,.03-2.93,.04-4.39,.04s-2.81-.01-4.25-.04c.4,2.72,.6,5.48,.6,8.24,0,31.61-26.16,57.32-58.31,57.32s-58.31-25.71-58.31-57.32c0-12.37,4.03-24.29,11.46-34.12-27.07-15.65-46.76-39.48-53.15-64.63-1.27-5.02-2.05-10.13-2.3-15.21-.89-18.03,4.5-37.33,16.04-57.37,8.93-15.52,20.21-29.42,33.64-41.47-27.15-26.29-42.74-62.13-42.83-98.55-.05-18.94,4.62-33.82,13.88-44.22,9.55-10.73,25.06-17.13,41.5-17.13,1.89,0,3.8,.08,5.67,.25,15.34,1.38,31.12,8.09,45.62,19.42,28.79,22.48,46.11,58.55,45.58,94.64,3.2-.19,6.39-.28,9.54-.29,3.17,0,6.36,.11,9.56,.29-.53-36.09,16.78-72.17,45.58-94.64,14.5-11.32,30.28-18.04,45.62-19.42,1.87-.17,3.78-.25,5.67-.25,16.44,0,31.96,6.4,41.5,17.13,9.25,10.4,13.92,25.27,13.88,44.22-.09,36.42-15.68,72.26-42.83,98.55,13.43,12.06,24.71,25.95,33.64,41.47,11.53,20.04,16.93,39.34,16.03,57.37-.25,5.08-1.02,10.19-2.3,15.21-6.41,25.23-26.18,49.11-53.38,64.76,7.36,9.81,11.36,21.68,11.36,33.99,0,31.61-26.16,57.32-58.31,57.32Z"/>
        <path class="cls-3" d="M302.78,32.23c14.31,0,28.81,5.2,38.05,15.59,9.9,11.12,12.74,26.53,12.71,41.14-.09,35.84-15.85,70.95-42.37,96.16l-12.29-5c18.45,13.51,34.33,30.75,46.09,51.18,9.66,16.79,16.37,35.68,15.43,54.84-.24,4.87-.98,9.65-2.16,14.3-6.98,27.47-29.42,50.66-56.03,64.54,8.62,9.35,13.87,21.75,13.87,35.35,0,29.11-24.04,52.7-53.7,52.7s-53.7-23.6-53.7-52.7c0-4.49,.58-8.84,1.65-13-3.18,.12-6.36,.18-9.54,.18-1.48,0-2.96-.01-4.43-.04-1.46,.03-2.93,.04-4.39,.04-3.3,0-6.61-.07-9.91-.19,1.08,4.16,1.65,8.52,1.65,13.01,0,29.11-24.04,52.7-53.7,52.7s-53.7-23.6-53.7-52.7c0-13.66,5.29-26.1,13.98-35.46-26.52-13.89-48.85-37.03-55.81-64.43-1.18-4.65-1.92-9.43-2.16-14.3-.95-19.15,5.76-38.04,15.43-54.84,11.76-20.43,27.64-37.67,46.09-51.18l-12.29,5c-26.52-25.21-42.29-60.32-42.37-96.16-.04-14.61,2.81-30.02,12.71-41.14,9.24-10.39,23.74-15.59,38.05-15.59,1.76,0,3.51,.08,5.25,.23,15.93,1.43,30.79,8.78,43.2,18.46,28.68,22.39,45.05,57.9,43.74,93.25l-9.32,3.79c7.79-1.11,15.66-1.7,23.55-1.71,7.89,.02,15.75,.61,23.55,1.71l-9.32-3.79c-1.3-35.35,15.06-70.86,43.74-93.25,12.4-9.68,27.27-17.02,43.2-18.46,1.74-.16,3.5-.23,5.25-.23m0-9.23h0c-2.03,0-4.07,.09-6.08,.27-16.23,1.46-32.85,8.51-48.05,20.37-15.16,11.84-27.54,27.44-35.8,45.13-7.14,15.29-11.07,31.86-11.52,48.32-1.66-.05-3.31-.08-4.95-.08-1.66,0-3.32,.03-4.99,.08-.45-16.47-4.38-33.03-11.52-48.32-8.26-17.69-20.64-33.3-35.8-45.13-15.2-11.87-31.82-18.91-48.05-20.37-2.01-.18-4.05-.27-6.08-.27-18,0-34.39,6.81-44.95,18.68-10.03,11.27-15.09,27.18-15.04,47.3,.09,36.09,14.88,71.61,40.78,98.4-12.23,11.6-22.61,24.76-30.98,39.31-11.98,20.81-17.58,40.97-16.64,59.9,.27,5.38,1.08,10.81,2.43,16.12,3.72,14.65,11.33,28.49,22.63,41.15,7.98,8.94,17.67,17.03,28.4,23.76-6.17,9.75-9.48,21.04-9.48,32.71,0,34.15,28.23,61.93,62.93,61.93s62.93-27.78,62.93-61.93c0-1.2-.04-2.4-.11-3.59,1.18,0,2.36-.02,3.52-.04,1.05,.02,2.12,.03,3.2,.04-.07,1.2-.11,2.39-.11,3.59,0,34.15,28.23,61.93,62.93,61.93s62.93-27.78,62.93-61.93c0-11.6-3.28-22.84-9.39-32.56,10.79-6.73,20.53-14.84,28.55-23.81,11.34-12.68,18.99-26.56,22.72-41.25,1.35-5.31,2.17-10.73,2.43-16.11,.94-18.93-4.67-39.08-16.64-59.9-8.37-14.55-18.75-27.71-30.98-39.31,25.9-26.8,40.69-62.32,40.78-98.4,.05-20.11-5.01-36.03-15.04-47.3-10.56-11.87-26.95-18.68-44.95-18.68h0Z"/>
      </g>
      <g>
        <path class="cls-2" d="M360.56,286.13c-.24,4.87-.98,9.65-2.16,14.3-7.62,30.01-33.68,54.91-63.48,68.15-30.04,13.34-64.43,19.51-98.39,18.88-33.96,.63-68.36-5.54-98.39-18.88-29.81-13.23-55.86-38.14-63.48-68.15-1.18-4.65-1.92-9.43-2.16-14.3-.95-19.15,5.76-38.04,15.43-54.84,11.76-20.43,27.64-37.67,46.09-51.18l-12.29,5c-26.52-25.21-42.29-60.32-42.37-96.16-.04-14.61,2.81-30.02,12.71-41.14,10.38-11.66,27.38-16.78,43.31-15.35s30.79,8.78,43.2,18.46c28.68,22.39,45.05,57.9,43.74,93.25l-9.32,3.79c7.79-1.11,15.66-1.7,23.55-1.71,7.88,.02,15.75,.61,23.55,1.71l-9.32-3.79c-1.3-35.35,15.06-70.86,43.74-93.25,12.4-9.68,27.27-17.02,43.2-18.46s32.93,3.69,43.31,15.35c9.9,11.12,12.74,26.53,12.71,41.14-.09,35.84-15.85,70.95-42.37,96.16l-12.29-5c18.45,13.51,34.33,30.75,46.09,51.18,9.66,16.79,16.37,35.68,15.43,54.84Z"/>
        <ellipse class="cls-2" cx="262.55" cy="400.32" rx="53.7" ry="52.7"/>
        <path class="cls-3" d="M241.26,390.39c-1.14,0-2.17-.78-2.45-1.93-.65-2.73-2.2-6.72-5.87-10.25-4.28-4.11-9.23-5.39-11.79-5.78-1.37-.21-2.32-1.5-2.11-2.87,.21-1.37,1.5-2.32,2.87-2.11,3.15,.48,9.24,2.05,14.52,7.13,4.55,4.37,6.47,9.32,7.28,12.71,.32,1.35-.51,2.71-1.86,3.03-.2,.05-.39,.07-.59,.07Z"/>
        <path class="cls-3" d="M258.21,376.26c-1.14,0-2.17-.78-2.45-1.93-.65-2.73-2.2-6.72-5.87-10.25-4.28-4.12-9.23-5.39-11.79-5.78-1.37-.21-2.32-1.49-2.11-2.87,.21-1.37,1.49-2.32,2.87-2.11,3.15,.48,9.24,2.05,14.52,7.13,4.55,4.37,6.47,9.32,7.28,12.7,.32,1.35-.51,2.71-1.86,3.04-.2,.05-.4,.07-.59,.07Z"/>
        <path class="cls-3" d="M282.28,369.1c-1.14,0-2.17-.78-2.45-1.93-.65-2.73-2.2-6.72-5.87-10.25-4.28-4.12-9.23-5.39-11.79-5.78-1.37-.21-2.32-1.5-2.11-2.87,.21-1.38,1.5-2.32,2.87-2.11,3.16,.48,9.24,2.05,14.52,7.13,4.55,4.37,6.47,9.32,7.28,12.71,.32,1.35-.51,2.71-1.86,3.03-.2,.05-.39,.07-.59,.07Z"/>
        <path class="cls-3" d="M325.89,271.7l-10.43-1.15c.37-7.04-.93-13.3-2.37-17.88l11.33-5.11c2.11-.95,3.05-3.44,2.1-5.55-.95-2.11-3.44-3.05-5.55-2.1l-11.07,4.99s-.04-.07-.05-.09c-26.35,10.34-52.7,20.69-79.04,31.03-4.46,1.75-6.46,6.91-4.24,11.09,8.95,16.81,25.97,27.4,43.81,27.04,11.22-.23,21.8-4.78,29.91-12.12l9.71,4.43c.57,.26,1.16,.38,1.74,.38,1.59,0,3.11-.91,3.82-2.45,.96-2.11,.03-4.6-2.07-5.56l-7.22-3.3c1.28-1.68,2.46-3.45,3.51-5.3,2.14-3.78,3.56-7.54,4.46-11.2l10.73,1.19c.16,.02,.31,.03,.47,.03,2.11,0,3.93-1.59,4.17-3.74,.25-2.3-1.41-4.38-3.71-4.63Z"/>
        <ellipse class="cls-2" cx="130.18" cy="400.32" rx="53.7" ry="52.7"/>
        <path class="cls-3" d="M151.46,390.39c-.19,0-.39-.02-.59-.07-1.35-.32-2.19-1.68-1.86-3.03,.81-3.38,2.73-8.33,7.28-12.71,5.28-5.08,11.36-6.65,14.52-7.13,1.37-.21,2.66,.73,2.87,2.11,.21,1.37-.73,2.66-2.11,2.87-2.57,.39-7.51,1.67-11.79,5.78-3.67,3.53-5.22,7.52-5.87,10.25-.28,1.16-1.31,1.93-2.45,1.93Z"/>
        <path class="cls-3" d="M134.51,376.26c-.19,0-.39-.02-.59-.07-1.35-.32-2.19-1.68-1.86-3.04,.81-3.38,2.73-8.33,7.28-12.7,5.28-5.08,11.36-6.65,14.52-7.13,1.37-.21,2.66,.73,2.87,2.11,.21,1.37-.73,2.66-2.11,2.87-2.57,.39-7.51,1.67-11.79,5.78-3.67,3.53-5.22,7.52-5.87,10.25-.28,1.15-1.31,1.93-2.45,1.93Z"/>
        <path class="cls-3" d="M110.45,369.1c-.19,0-.39-.02-.59-.07-1.35-.32-2.19-1.68-1.86-3.03,.81-3.38,2.73-8.33,7.28-12.71,5.28-5.08,11.36-6.65,14.52-7.13,1.37-.21,2.66,.73,2.87,2.11,.21,1.37-.73,2.66-2.11,2.87-2.57,.39-7.51,1.67-11.79,5.78-3.67,3.53-5.22,7.52-5.87,10.25-.28,1.16-1.31,1.93-2.45,1.93Z"/>
        <path class="cls-3" d="M161.91,275.84c-26.35-10.34-52.7-20.69-79.04-31.03-.01,.02-.03,.06-.05,.09l-11.07-4.99c-2.11-.95-4.6-.01-5.55,2.1-.95,2.11-.01,4.6,2.1,5.55l11.33,5.11c-1.45,4.58-2.74,10.84-2.37,17.88l-10.43,1.15c-2.3,.25-3.96,2.33-3.71,4.63,.24,2.15,2.05,3.74,4.17,3.74,.15,0,.31,0,.47-.03l10.73-1.19c.9,3.66,2.32,7.42,4.46,11.2,1.05,1.85,2.22,3.62,3.51,5.3l-7.22,3.3c-2.11,.96-3.04,3.45-2.07,5.56,.7,1.54,2.23,2.45,3.82,2.45,.58,0,1.18-.12,1.74-.38l9.71-4.43c8.11,7.34,18.69,11.89,29.91,12.12,17.84,.36,34.86-10.23,43.81-27.04,2.23-4.18,.23-9.34-4.24-11.09Z"/>
        <path class="cls-3" d="M235.16,321.27c-4.48,7.97-12.13,12.72-20.3,12.72-.62,0-1.24-.03-1.86-.08-8.46-.75-13.9-6.27-16.63-9.99-2.74,3.71-8.17,9.24-16.63,9.99-.62,.05-1.24,.08-1.86,.08-8.17,0-15.82-4.74-20.3-12.72-1.13-2.02-.42-4.58,1.6-5.71s4.58-.42,5.71,1.6c3.18,5.66,8.58,8.87,14.11,8.38,6.47-.57,10.35-6.03,11.56-8-2.53-1.43-4.18-3.53-4.51-5.83-.28-1.96,.28-4.75,2.13-5.91,2.16-1.35,5.76-.3,8.19,3.19,2.43-3.48,6.04-4.54,8.19-3.19,1.85,1.16,2.42,3.95,2.13,5.91-.33,2.3-1.99,4.4-4.51,5.83,1.2,1.97,5.09,7.43,11.56,8,5.53,.49,10.93-2.73,14.11-8.38,1.14-2.02,3.69-2.74,5.71-1.6,2.02,1.13,2.74,3.69,1.6,5.71Z"/>
        <path class="cls-5" d="M163.44,309.56c-9.13,7.26-20.81,11.03-32.52,11.96-13.26,1.06-26.89-1.43-38.56-7.7-12.01-6.45-21.69-16.78-27.87-28.76-10.08-19.55-9.14-42.29,2.4-61.09,10.94-17.81,29.05-30.46,47.27-40.38,11.34-6.17,22.21-13.39,24.38-26.92,.45-2.79,.47-5.64,.09-8.43-.48-3.52,3.98-5.52,6.32-2.81,10.09,11.71,15.98,29.16,7.73,41.71-3.94,5.99-10.19,10.11-15.31,15.17-5.66,5.59-10.01,12.46-12.62,19.91-2.38,6.79-2.99,15.13,2.03,20.36,4.57,4.76,12.61,5.12,18.53,2.09,7.13-3.65,10.76-11.33,10.47-18.88-.13-3.27,3.87-4.96,6.2-2.62,4.05,4.06,7.69,9.3,10.07,12.94,4.93,7.53,8.38,16.02,9.69,24.89,2.63,17.86-3.98,37.2-18.29,48.57Z"/>
        <path class="cls-1" d="M290.79,285.55c0,1.26-.91,2.33-2.16,2.54-3.27,.56-5.92,2.09-8.11,4.69-1.81,2.16-2.93,4.59-3.42,7.4-.22,1.23-1.3,2.14-2.58,2.14s-2.35-.9-2.58-2.13c-.49-2.81-1.62-5.24-3.44-7.41-2.19-2.59-4.85-4.11-8.11-4.67-1.26-.22-2.17-1.28-2.17-2.54s.91-2.32,2.16-2.54c3.27-.56,5.92-2.09,8.11-4.69,1.81-2.16,2.93-4.59,3.42-7.39,.22-1.24,1.3-2.14,2.58-2.14s2.36,.9,2.58,2.14c.49,2.8,1.62,5.22,3.44,7.4,2.19,2.59,4.85,4.11,8.1,4.67,1.26,.21,2.17,1.27,2.18,2.53Zm-156.37-2.53c-3.26-.56-5.92-2.09-8.1-4.67-1.82-2.18-2.95-4.6-3.44-7.4-.22-1.25-1.31-2.14-2.58-2.14s-2.36,.91-2.58,2.14c-.49,2.8-1.61,5.23-3.42,7.39-2.19,2.59-4.85,4.13-8.11,4.69-1.25,.22-2.16,1.28-2.16,2.54s.91,2.32,2.17,2.54c3.27,.56,5.92,2.09,8.11,4.67,1.82,2.17,2.95,4.6,3.44,7.41,.22,1.23,1.31,2.13,2.58,2.13s2.36-.91,2.58-2.14c.49-2.81,1.61-5.24,3.42-7.4,2.19-2.59,4.85-4.13,8.11-4.69,1.26-.21,2.16-1.28,2.16-2.54,0-1.26-.92-2.32-2.18-2.53Z"/>
      </g>
    </g>
  </g>
</svg>